<svg width="24" height="20" viewBox="0 0 24 20" fill="none" xmlns="http://www.w3.org/2000/svg">
<path d="M0.84738 9.33794C3.20033 8.04517 5.82688 6.96621 8.281 5.88173C12.503 4.10544 16.7418 2.35993 21.0234 0.734885C21.8565 0.457993 23.3532 0.187208 23.5 1.41858C23.4197 3.16158 23.0891 4.89437 22.8623 6.62716C22.2867 10.4377 21.6215 14.2352 20.9728 18.0333C20.7492 19.2984 19.1604 19.9533 18.1438 19.1437C15.7005 17.4976 13.2385 15.8675 10.8265 14.1832C10.0364 13.3824 10.7691 12.2324 11.4747 11.6606C13.487 9.68251 15.6211 8.00192 17.5283 5.92163C18.0427 4.68248 16.5227 5.7268 16.0213 6.04678C13.2665 7.94035 10.579 9.94953 7.67455 11.6137C6.19095 12.4283 4.46178 11.7322 2.97884 11.2776C1.6492 10.7285 -0.299216 10.1753 0.847246 9.33803L0.84738 9.33794Z" fill="white"/>
</svg>
