<svg width="23" height="20" viewBox="0 0 23 20" fill="none" xmlns="http://www.w3.org/2000/svg">
<path d="M0.34738 9.33794C2.70033 8.04517 5.32688 6.96621 7.781 5.88173C12.003 4.10544 16.2418 2.35993 20.5234 0.734885C21.3565 0.457993 22.8532 0.187208 23 1.41858C22.9197 3.16158 22.5891 4.89437 22.3623 6.62716C21.7867 10.4377 21.1215 14.2352 20.4728 18.0333C20.2492 19.2984 18.6604 19.9533 17.6438 19.1437C15.2005 17.4976 12.7385 15.8675 10.3265 14.1832C9.53642 13.3824 10.2691 12.2324 10.9747 11.6606C12.987 9.68251 15.1211 8.00192 17.0283 5.92163C17.5427 4.68248 16.0227 5.7268 15.5213 6.04678C12.7665 7.94035 10.079 9.94953 7.17455 11.6137C5.69095 12.4283 3.96178 11.7322 2.47884 11.2776C1.1492 10.7285 -0.799216 10.1753 0.347246 9.33803L0.34738 9.33794Z" fill="#101010"/>
</svg>
