<svg width="16" height="17" viewBox="0 0 16 17" fill="none" xmlns="http://www.w3.org/2000/svg">
<path fill-rule="evenodd" clip-rule="evenodd" d="M7.68486 0.816637C7.8861 0.730392 8.1139 0.730392 8.31514 0.816637L13.9151 3.21664C14.3212 3.39068 14.5094 3.86099 14.3353 4.26709C14.1613 4.67319 13.691 4.86131 13.2849 4.68727L8 2.42233L2.71514 4.68727C2.30903 4.86131 1.83873 4.67319 1.66468 4.26709C1.49064 3.86099 1.67876 3.39068 2.08486 3.21664L7.68486 0.816637ZM0 7.15195C0 6.71013 0.358172 6.35195 0.8 6.35195H15.2C15.6418 6.35195 16 6.71013 16 7.15195C16 7.59378 15.6418 7.95195 15.2 7.95195V15.152C15.6418 15.152 16 15.5101 16 15.952C16 16.3938 15.6418 16.752 15.2 16.752H0.8C0.358172 16.752 0 16.3938 0 15.952C0 15.5101 0.358172 15.152 0.8 15.152V7.95195C0.358172 7.95195 0 7.59378 0 7.15195ZM2.4 7.95195V15.152H13.6V7.95195H2.4ZM4.8 9.55195C5.24183 9.55195 5.6 9.91012 5.6 10.352V12.752C5.6 13.1938 5.24183 13.552 4.8 13.552C4.35817 13.552 4 13.1938 4 12.752V10.352C4 9.91012 4.35817 9.55195 4.8 9.55195ZM8 9.55195C8.44183 9.55195 8.8 9.91012 8.8 10.352V12.752C8.8 13.1938 8.44183 13.552 8 13.552C7.55817 13.552 7.2 13.1938 7.2 12.752V10.352C7.2 9.91012 7.55817 9.55195 8 9.55195ZM11.2 9.55195C11.6418 9.55195 12 9.91012 12 10.352V12.752C12 13.1938 11.6418 13.552 11.2 13.552C10.7582 13.552 10.4 13.1938 10.4 12.752V10.352C10.4 9.91012 10.7582 9.55195 11.2 9.55195Z" fill="#00C660"/>
</svg>
