<svg width="18" height="17" viewBox="0 0 18 17" fill="none" xmlns="http://www.w3.org/2000/svg">
<path fill-rule="evenodd" clip-rule="evenodd" d="M10.6865 3.11274C9.99885 2.5684 9.01148 2.38091 8.10721 2.6535C7.20646 2.92434 6.59736 3.58332 6.43158 4.3188C6.34019 4.72424 5.98006 5.01223 5.56445 5.01223C4.41376 5.01223 3.55556 5.89042 3.55556 6.88246C3.55556 7.87344 4.41357 8.75181 5.56445 8.75181L12.9574 8.75181C13.2921 8.7525 13.6133 8.62025 13.8505 8.38414C14.0872 8.14854 14.2208 7.82879 14.2222 7.49491C14.2208 7.16103 14.0872 6.84128 13.8505 6.60568C13.6133 6.36957 13.2921 6.23732 12.9574 6.23801L12.3396 6.23801C12.0695 6.23801 11.814 6.11521 11.6453 5.90427C11.4767 5.69333 11.413 5.41714 11.4724 5.15366C11.636 4.42804 11.3647 3.64773 10.6865 3.11274ZM11.7893 1.71834C10.6266 0.79827 9.03139 0.518316 7.59471 0.951185L11.7893 1.71834ZM11.7893 1.71834C12.6725 2.41525 13.2131 3.41237 13.2882 4.47798C13.9714 4.55216 14.613 4.85629 15.1047 5.34574C15.676 5.91441 15.998 6.68666 16 7.49271V7.49711C15.998 8.30316 15.676 9.07541 15.1047 9.64408C14.5337 10.2125 13.7603 10.531 12.9546 10.5296H9.77778V9.6408C9.77778 9.14988 9.37981 8.7519 8.88889 8.7519C8.39797 8.7519 8 9.14988 8 9.6408V10.5296H5.56445C3.51532 10.5296 1.77778 8.93684 1.77778 6.88246C1.77778 5.05318 3.15432 3.59007 4.90212 3.29063C4.81589 3.49454 4.74701 3.70738 4.69731 3.92787L5.56445 4.12333V3.23444C5.33927 3.23444 5.11787 3.25367 4.90212 3.29063C5.37638 2.16913 6.37599 1.31781 7.59471 0.951185M8 11.5711V10.5296H9.77778V11.5711C9.49493 11.4711 9.19462 11.4186 8.88889 11.4186C8.58316 11.4186 8.28285 11.4711 8 11.5711ZM6.37473 13.1964C6.50607 12.8249 6.71936 12.4836 7.00327 12.1996C7.28719 11.9157 7.62853 11.7024 8 11.5711V12.3075H9.77778V11.5711C10.1492 11.7024 10.4906 11.9157 10.7745 12.1996C11.0584 12.4836 11.2717 12.8249 11.403 13.1964H10.6667V14.9742H11.403C11.2717 15.3456 11.0584 15.687 10.7745 15.9709C10.2744 16.471 9.59613 16.752 8.88889 16.752C8.18164 16.752 7.50337 16.471 7.00327 15.9709C6.71936 15.687 6.50607 15.3456 6.37473 14.9742H7.11111V13.1964H6.37473ZM6.37473 13.1964C6.27472 13.4792 6.22222 13.7795 6.22222 14.0853C6.22222 14.391 6.27472 14.6913 6.37473 14.9742H0.888889C0.397969 14.9742 0 14.5762 0 14.0853C0 13.5943 0.397969 13.1964 0.888889 13.1964H6.37473ZM11.403 14.9742H16.8889C17.3798 14.9742 17.7778 14.5762 17.7778 14.0853C17.7778 13.5943 17.3798 13.1964 16.8889 13.1964H11.403C11.5031 13.4792 11.5556 13.7795 11.5556 14.0853C11.5556 14.391 11.5031 14.6913 11.403 14.9742ZM12.9556 4.46022V5.34912L12.9537 4.46023L12.9556 4.46022ZM8.88889 13.1964C8.65314 13.1964 8.42705 13.29 8.26035 13.4567C8.09365 13.6234 8 13.8495 8 14.0853C8 14.321 8.09365 14.5471 8.26035 14.7138C8.42705 14.8805 8.65314 14.9742 8.88889 14.9742C9.12464 14.9742 9.35073 14.8805 9.51743 14.7138C9.68413 14.5471 9.77778 14.321 9.77778 14.0853C9.77778 13.8495 9.68413 13.6234 9.51743 13.4567C9.35073 13.29 9.12464 13.1964 8.88889 13.1964Z" fill="#00C660"/>
<path d="M4.90212 3.29063C4.81589 3.49454 4.74701 3.70738 4.69731 3.92787L5.56445 4.12333V3.23444C5.33927 3.23444 5.11787 3.25367 4.90212 3.29063Z" fill="#00C660"/>
<path d="M6.37473 14.9742H7.11111V13.1964H6.37473C6.27472 13.4792 6.22222 13.7795 6.22222 14.0853C6.22222 14.391 6.27472 14.6913 6.37473 14.9742Z" fill="#00C660"/>
<path d="M9.77778 11.5711C9.49493 11.4711 9.19462 11.4186 8.88889 11.4186C8.58316 11.4186 8.28285 11.4711 8 11.5711V12.3075H9.77778V11.5711Z" fill="#00C660"/>
<path d="M9.77778 10.5296V9.6408C9.77778 9.14988 9.37981 8.7519 8.88889 8.7519C8.39797 8.7519 8 9.14988 8 9.6408V10.5296H9.77778Z" fill="#00C660"/>
<path d="M11.403 13.1964H10.6667V14.9742H11.403C11.5031 14.6913 11.5556 14.391 11.5556 14.0853C11.5556 13.7795 11.5031 13.4792 11.403 13.1964Z" fill="#00C660"/>
</svg>
