<svg width="609" height="391" viewBox="0 0 609 391" fill="none" xmlns="http://www.w3.org/2000/svg">
<path fill-rule="evenodd" clip-rule="evenodd" d="M608.795 0.565737H137.986L140.23 9.05986C141.676 14.6182 143.748 22.4861 144.843 26.5961C145.296 28.3603 145.994 31.0332 146.785 34.0638C147.837 38.0936 149.054 42.7558 150.081 46.755C151.879 53.7617 153.755 61.5121 154.263 63.9781C155.045 67.9316 155.162 69.5756 155.162 77.6783C155.123 85.4287 155.006 87.6207 154.263 91.6916C153.794 94.3142 152.582 98.894 151.605 101.83C150.628 104.805 149.025 108.915 148.087 110.95C147.11 112.986 145.507 116 144.53 117.605C143.553 119.209 141.481 122.223 139.957 124.259C138.432 126.294 135.266 129.935 132.881 132.323C130.536 134.71 126.823 137.959 124.673 139.564C122.523 141.169 119.356 143.283 117.636 144.3C115.917 145.318 112.907 146.845 110.991 147.745C109.076 148.606 102.118 151.072 95.5509 153.186C88.9839 155.339 78.078 158.862 71.3155 161.015C64.553 163.168 49.8554 167.826 38.6758 171.348C27.4962 174.911 16.5121 178.394 14.2449 179.06C11.9777 179.764 7.75604 181.095 4.86342 182.035C1.9708 182.974 -0.530927 183.757 -0.687284 183.757C-0.882732 183.757 -1 142.187 -1 91.3785V392H470.223L467.643 387.772C466.197 385.463 463.813 381.392 462.327 378.691C460.803 375.99 458.262 371.137 456.659 367.927C455.018 364.678 452.438 358.963 450.874 355.205C449.35 351.447 447.121 345.537 445.988 342.092C444.815 338.647 443.291 333.363 442.509 330.349C441.766 327.335 440.789 322.912 440.359 320.563C439.929 318.215 439.382 314.77 439.147 312.93C438.913 311.091 438.561 307.059 438.405 303.927C438.248 300.796 438.17 296.49 438.248 294.337C438.287 292.184 438.561 288.583 438.795 286.313C438.991 284.042 439.421 280.794 439.734 279.071C440.046 277.349 440.554 274.726 440.906 273.2C441.258 271.673 442.04 268.972 442.626 267.132C443.213 265.293 444.385 262.24 445.206 260.282C446.066 258.325 447.669 255.076 448.841 253.041C449.975 251.005 451.93 247.913 453.141 246.23C454.353 244.547 457.402 241.024 459.865 238.44C462.327 235.857 465.611 232.725 467.096 231.512C468.582 230.259 471.162 228.38 472.764 227.324C474.367 226.228 477.181 224.544 479.018 223.566C480.856 222.587 483.905 221.178 485.859 220.434C487.814 219.691 490.706 218.712 492.309 218.281C493.912 217.851 498.407 216.833 502.277 216.089C506.147 215.307 510.876 214.445 512.831 214.132C514.785 213.858 519.163 213.584 522.603 213.545C526.317 213.545 530.265 213.741 532.376 214.054C534.33 214.367 537.653 215.072 539.803 215.581C541.953 216.129 545.119 217.107 546.839 217.733C548.559 218.36 550.865 219.299 551.92 219.769C552.423 220.003 553.008 220.269 553.566 220.524C554.223 220.823 554.841 221.105 555.243 221.296C555.986 221.648 557.862 222.626 559.347 223.488C560.833 224.31 563.217 225.797 564.624 226.776C566.032 227.715 568.416 229.477 569.901 230.69C571.387 231.864 574.162 234.369 575.999 236.209C577.837 238.049 580.69 241.102 582.371 243.059C584.052 245.016 585.889 246.974 586.436 247.443C587.335 248.187 587.687 248.265 588.86 247.913C589.603 247.717 594.176 246.778 599.023 245.799C602.846 245.058 606.474 244.366 608.795 243.934V0.565737ZM177.248 201.763L210.083 182.191L277.317 239.341L396.931 96.0757L431.329 124.259L288.262 295.707L177.248 201.763Z" fill="#00C660"/>
<path d="M210.083 182.191L177.248 201.763L288.262 295.707L431.329 124.259L396.931 96.0757L277.317 239.341L210.083 182.191Z" fill="white"/>
</svg>
