<svg width="16" height="17" viewBox="0 0 16 17" fill="none" xmlns="http://www.w3.org/2000/svg">
<path fill-rule="evenodd" clip-rule="evenodd" d="M7.89216 1.533C8.39226 1.0329 9.07053 0.751953 9.77778 0.751953C10.485 0.751953 11.1633 1.0329 11.6634 1.533C11.9473 1.81692 12.1606 2.15826 12.2919 2.52973H15.1111C15.602 2.52973 16 2.9277 16 3.41862C16 3.90954 15.602 4.30751 15.1111 4.30751H12.2919C12.1606 4.67898 11.9473 5.02032 11.6634 5.30424C11.1633 5.80434 10.485 6.08529 9.77778 6.08529C9.07053 6.08529 8.39226 5.80434 7.89216 5.30424C7.60824 5.02032 7.39496 4.67898 7.26362 4.30751H0.888889C0.397969 4.30751 0 3.90954 0 3.41862C0 2.9277 0.397969 2.52973 0.888889 2.52973H7.26362C7.39496 2.15826 7.60824 1.81692 7.89216 1.533ZM9.77778 2.52973C9.54203 2.52973 9.31594 2.62338 9.14924 2.79008C8.98254 2.95678 8.88889 3.18287 8.88889 3.41862C8.88889 3.65437 8.98254 3.88046 9.14924 4.04716C9.31594 4.21386 9.54203 4.30751 9.77778 4.30751C10.0135 4.30751 10.2396 4.21386 10.4063 4.04716C10.573 3.88046 10.6667 3.65437 10.6667 3.41862C10.6667 3.18287 10.573 2.95678 10.4063 2.79008C10.2396 2.62338 10.0135 2.52973 9.77778 2.52973ZM2.55883 6.86634C3.05892 6.36624 3.7372 6.08529 4.44444 6.08529C5.15169 6.08529 5.82997 6.36624 6.33006 6.86634C6.61398 7.15025 6.82726 7.49159 6.9586 7.86306H15.1111C15.602 7.86306 16 8.26103 16 8.75195C16 9.24287 15.602 9.64084 15.1111 9.64084H6.9586C6.82726 10.0123 6.61398 10.3537 6.33006 10.6376C5.82997 11.1377 5.15169 11.4186 4.44444 11.4186C3.7372 11.4186 3.05892 11.1377 2.55883 10.6376C2.27491 10.3537 2.06163 10.0123 1.93029 9.64084H0.888889C0.397969 9.64084 0 9.24287 0 8.75195C0 8.26103 0.397969 7.86306 0.888889 7.86306H1.93029C2.06163 7.49159 2.27491 7.15025 2.55883 6.86634ZM4.44444 7.86306C4.2087 7.86306 3.9826 7.95671 3.81591 8.12341C3.64921 8.29011 3.55556 8.51621 3.55556 8.75195C3.55556 8.9877 3.64921 9.21379 3.81591 9.38049C3.9826 9.54719 4.2087 9.64084 4.44444 9.64084C4.68019 9.64084 4.90628 9.54719 5.07298 9.38049C5.23968 9.21379 5.33333 8.9877 5.33333 8.75195C5.33333 8.51621 5.23968 8.29011 5.07298 8.12341C4.90628 7.95671 4.68019 7.86306 4.44444 7.86306ZM10.5588 12.1997C11.0589 11.6996 11.7372 11.4186 12.4444 11.4186C13.1517 11.4186 13.83 11.6996 14.3301 12.1997C14.614 12.4836 14.8273 12.8249 14.9586 13.1964H15.1111C15.602 13.1964 16 13.5944 16 14.0853C16 14.5762 15.602 14.9742 15.1111 14.9742H14.9586C14.8273 15.3456 14.614 15.687 14.3301 15.9709C13.83 16.471 13.1517 16.752 12.4444 16.752C11.7372 16.752 11.0589 16.471 10.5588 15.9709C10.2749 15.687 10.0616 15.3456 9.93029 14.9742H0.888889C0.397969 14.9742 0 14.5762 0 14.0853C0 13.5944 0.397969 13.1964 0.888889 13.1964H9.93029C10.0616 12.8249 10.2749 12.4836 10.5588 12.1997ZM12.4444 13.1964C12.2087 13.1964 11.9826 13.29 11.8159 13.4567C11.6492 13.6234 11.5556 13.8495 11.5556 14.0853C11.5556 14.321 11.6492 14.5471 11.8159 14.7138C11.9826 14.8805 12.2087 14.9742 12.4444 14.9742C12.6802 14.9742 12.9063 14.8805 13.073 14.7138C13.2397 14.5471 13.3333 14.321 13.3333 14.0853C13.3333 13.8495 13.2397 13.6234 13.073 13.4567C12.9063 13.29 12.6802 13.1964 12.4444 13.1964Z" fill="#00C660"/>
</svg>
